<svg width="512" height="512" viewBox="0 0 512 512" fill="none" xmlns="http://www.w3.org/2000/svg">
<path fill-rule="evenodd" clip-rule="evenodd" d="M512 469.333V42.6667C512 19.0874 492.913 0 469.333 0H42.6667C19.0874 0 0 19.0874 0 42.6667V469.333C0 492.913 19.0874 512 42.6667 512H469.333C492.913 512 512 492.913 512 469.333Z" fill="#1C9957"/>
<mask id="mask0" mask-type="alpha" maskUnits="userSpaceOnUse" x="0" y="0" width="512" height="512">
<path fill-rule="evenodd" clip-rule="evenodd" d="M512 469.333V42.6667C512 19.0874 492.913 0 469.333 0H42.6667C19.0874 0 0 19.0874 0 42.6667V469.333C0 492.913 19.0874 512 42.6667 512H469.333C492.913 512 512 492.913 512 469.333Z" fill="white"/>
</mask>
<g mask="url(#mask0)">
<path fill-rule="evenodd" clip-rule="evenodd" d="M41.681 512H476.319C500.339 512 259 281 259 281C259 281 17.6612 512 41.681 512Z" fill="#3E7BF1"/>
<path fill-rule="evenodd" clip-rule="evenodd" d="M512 476.319V41.681C512 17.6612 281 259 281 259C281 259 512 500.339 512 476.319Z" fill="#CBCCC9"/>
<path fill-rule="evenodd" clip-rule="evenodd" d="M468.898 512C492.718 512 512 492.718 512 468.898V465.339L285.661 239L239 285.661L465.339 512H468.898Z" fill="#F2F2F2"/>
<path fill-rule="evenodd" clip-rule="evenodd" d="M512 42.6667C512 19.0874 492.913 0 469.333 0H465.811L0 465.811V469.333C0 492.913 19.0874 512 42.6667 512H46.1892L512 46.1892V42.6667Z" fill="#FFD73D"/>
<path fill-rule="evenodd" clip-rule="evenodd" d="M416.579 -72.1802C339.051 -72.1802 276.21 -9.33897 276.21 68.1886C276.21 163.825 383.784 198.668 407.215 346.824C408.737 356.35 408.845 362.925 416.579 362.925C424.313 362.925 424.42 356.35 425.943 346.824C449.374 198.668 556.948 163.825 556.948 68.1886C556.948 -9.33897 494.106 -72.1802 416.579 -72.1802Z" fill="#D73F35"/>
<path fill-rule="evenodd" clip-rule="evenodd" d="M468.75 71.2472C468.75 98.4101 446.801 120.359 419.638 120.359C392.475 120.359 370.527 98.4101 370.527 71.2472C370.527 44.0843 392.475 22.1356 419.638 22.1356C446.801 22.1356 468.75 44.0843 468.75 71.2472Z" fill="#752622"/>
<path fill-rule="evenodd" clip-rule="evenodd" d="M119.213 91.6886V121.156H161.265C155.687 139.049 140.785 151.795 119.213 151.795C93.4786 151.795 72.6348 131.005 72.6348 105.27C72.6348 79.468 93.4786 58.6781 119.213 58.6781C130.733 58.6781 141.31 62.9493 149.475 69.9017L171.154 48.2091C157.479 35.6785 139.262 28.0524 119.213 28.0524C76.5287 28.0524 41.9956 62.6798 41.9956 105.27C41.9956 147.847 76.5287 182.474 119.213 182.474C186.73 182.474 198.317 121.897 191.944 91.7964L119.213 91.6886Z" fill="white"/>
</g>
</svg>
